<svg xmlns="http://www.w3.org/2000/svg" width="22" height="22" viewBox="0 0 22 22" fill="none">
  <path d="M4.125 3.4375L17.875 18.5625" stroke="#00315D" stroke-width="2" stroke-linecap="round" stroke-linejoin="round"/>
  <path d="M13.3123 13.5437C12.6377 14.1568 11.7472 14.4769 10.8366 14.4335C9.92595 14.3901 9.06988 13.9868 8.45665 13.3122C7.84342 12.6377 7.52325 11.7471 7.56657 10.8365C7.60989 9.92594 8.01315 9.06984 8.68765 8.45654" stroke="#00315D" stroke-width="2" stroke-linecap="round" stroke-linejoin="round"/>
  <path d="M6.3589 5.89502C2.85529 7.66925 1.375 11.0003 1.375 11.0003C1.375 11.0003 4.125 17.1871 11 17.1871C12.6108 17.1999 14.2015 16.8289 15.6404 16.1047" stroke="#00315D" stroke-width="2" stroke-linecap="round" stroke-linejoin="round"/>
  <path d="M17.9274 14.5322C19.8009 12.8541 20.625 11.0002 20.625 11.0002C20.625 11.0002 17.875 4.81203 11 4.81203C10.4045 4.81105 9.81003 4.85946 9.2226 4.95676" stroke="#00315D" stroke-width="2" stroke-linecap="round" stroke-linejoin="round"/>
  <path d="M11.6469 7.62354C12.3775 7.76383 13.043 8.13723 13.5434 8.68773C14.0438 9.23823 14.3523 9.93614 14.4225 10.6768" stroke="#00315D" stroke-width="2" stroke-linecap="round" stroke-linejoin="round"/>
</svg>