<svg width="51" height="42" viewBox="0 0 51 42" fill="none" xmlns="http://www.w3.org/2000/svg">
<path d="M39.1348 9.1875L11.864 9.18751" stroke="#FBFBFB" stroke-width="2" stroke-linecap="round" stroke-linejoin="round"/>
<path d="M21.7812 17.0625V27.5625" stroke="#FBFBFB" stroke-width="2" stroke-linecap="round" stroke-linejoin="round"/>
<path d="M29.2188 17.0625V27.5625" stroke="#FBFBFB" stroke-width="2" stroke-linecap="round" stroke-linejoin="round"/>
<path d="M36.6563 9.1875V34.125C36.6563 34.4731 36.5257 34.8069 36.2932 35.0531C36.0607 35.2992 35.7454 35.4375 35.4167 35.4375H15.5833C15.2546 35.4375 14.9393 35.2992 14.7068 35.0531C14.4743 34.8069 14.3438 34.4731 14.3438 34.125V9.1875" stroke="#FBFBFB" stroke-width="2" stroke-linecap="round" stroke-linejoin="round"/>
<path d="M31.6981 9.1875V6.5625C31.6981 5.86631 31.4369 5.19863 30.9719 4.70634C30.507 4.21406 29.8764 3.9375 29.2189 3.9375H21.7814C21.1239 3.9375 20.4933 4.21406 20.0284 4.70634C19.5634 5.19863 19.3022 5.86631 19.3022 6.5625V9.1875" stroke="#FBFBFB" stroke-width="2" stroke-linecap="round" stroke-linejoin="round"/>
</svg>
