<svg width="136" height="27" viewBox="0 0 136 27" fill="none" xmlns="http://www.w3.org/2000/svg">
<path d="M0.424499 27V14.52C0.424499 12.344 1.20317 10.4773 2.7605 8.92C4.31783 7.36267 6.1845 6.584 8.3605 6.584C10.5578 6.584 12.4245 7.36267 13.9605 8.92C15.5178 10.456 16.2965 12.3227 16.2965 14.52V27H12.9045V14.52C12.9045 13.2827 12.4565 12.216 11.5605 11.32C10.6645 10.424 9.59783 9.976 8.3605 9.976C7.12317 9.976 6.0565 10.424 5.1605 11.32C4.2645 12.216 3.8165 13.2827 3.8165 14.52V27H0.424499ZM21.236 9.592C23.2413 7.58667 25.652 6.584 28.468 6.584C31.284 6.584 33.684 7.58667 35.668 9.592C37.6733 11.576 38.676 13.976 38.676 16.792C38.676 17.3253 38.6227 17.8907 38.516 18.488H21.876C22.26 19.9813 23.06 21.208 24.276 22.168C25.492 23.1067 26.8893 23.576 28.468 23.576C30.452 23.576 32.1053 22.8613 33.428 21.432H37.556C36.7027 23.1173 35.4547 24.472 33.812 25.496C32.1907 26.4987 30.4093 27 28.468 27C25.652 27 23.2413 26.008 21.236 24.024C19.252 22.0187 18.26 19.608 18.26 16.792C18.26 13.976 19.252 11.576 21.236 9.592ZM21.876 15.096H35.06C34.6973 13.6027 33.8973 12.376 32.66 11.416C31.444 10.456 30.0467 9.976 28.468 9.976C26.8893 9.976 25.4813 10.456 24.244 11.416C23.028 12.376 22.2387 13.6027 21.876 15.096ZM42.5075 9.592C44.5128 7.58667 46.9235 6.584 49.7395 6.584C52.5555 6.584 54.9555 7.58667 56.9395 9.592C58.9448 11.576 59.9475 13.976 59.9475 16.792C59.9475 19.608 58.9448 22.0187 56.9395 24.024C54.9555 26.008 52.5555 27 49.7395 27C46.9235 27 44.5128 26.008 42.5075 24.024C40.5235 22.0187 39.5315 19.608 39.5315 16.792C39.5315 13.976 40.5235 11.576 42.5075 9.592ZM54.5395 11.992C53.2168 10.648 51.6168 9.976 49.7395 9.976C47.8622 9.976 46.2515 10.648 44.9075 11.992C43.5848 13.3147 42.9235 14.9147 42.9235 16.792C42.9235 18.6693 43.5848 20.2693 44.9075 21.592C46.2515 22.9147 47.8622 23.576 49.7395 23.576C51.6168 23.576 53.2168 22.9147 54.5395 21.592C55.8835 20.2693 56.5555 18.6693 56.5555 16.792C56.5555 14.9147 55.8835 13.3147 54.5395 11.992Z" fill="#171717"/>
<path d="M71.9523 6.584C73.8509 6.584 75.6003 7.07467 77.2003 8.056C78.8216 9.016 80.0696 10.296 80.9443 11.896H76.7203C75.3976 10.616 73.8083 9.976 71.9523 9.976C70.0749 9.976 68.4749 10.648 67.1523 11.992C65.8296 13.3147 65.1683 14.9147 65.1683 16.792C65.1683 18.6693 65.8296 20.2693 67.1523 21.592C68.4749 22.9147 70.0749 23.576 71.9523 23.576C73.0616 23.576 74.0963 23.3307 75.0563 22.84C76.0163 22.3493 76.8056 21.6773 77.4243 20.824H81.3283C80.5389 22.6587 79.2909 24.152 77.5843 25.304C75.8989 26.4347 74.0216 27 71.9523 27C69.1363 27 66.7363 26.008 64.7523 24.024C62.7683 22.0187 61.7763 19.608 61.7763 16.792C61.7763 13.976 62.7683 11.576 64.7523 9.592C66.7363 7.58667 69.1363 6.584 71.9523 6.584ZM102.686 16.792V27H99.2935V24.376C97.3735 26.1253 95.1015 27 92.4775 27C89.6615 27 87.2508 26.008 85.2455 24.024C83.2615 22.0187 82.2695 19.608 82.2695 16.792C82.2695 13.976 83.2615 11.576 85.2455 9.592C87.2508 7.58667 89.6615 6.584 92.4775 6.584C95.2935 6.584 97.6935 7.58667 99.6775 9.592C101.683 11.576 102.686 13.976 102.686 16.792ZM92.4775 9.976C90.6002 9.976 89.0002 10.648 87.6775 11.992C86.3548 13.3147 85.6935 14.9147 85.6935 16.792C85.6935 18.6693 86.3548 20.2693 87.6775 21.592C89.0002 22.9147 90.6002 23.576 92.4775 23.576C94.3548 23.576 95.9548 22.9147 97.2775 21.592C98.6215 20.2693 99.2935 18.6693 99.2935 16.792C99.2935 14.8933 98.6322 13.2827 97.3095 11.96C95.9868 10.6373 94.3762 9.976 92.4775 9.976ZM106.719 7.704V7.736C106.719 5.85866 107.38 4.25867 108.703 2.936C110.047 1.592 111.657 0.919998 113.535 0.919998H114.655V4.312H113.535C112.596 4.312 111.796 4.64267 111.135 5.304C110.473 5.96533 110.143 6.76533 110.143 7.704H114.655V11.096H110.143V27H106.719V11.096H104.447V7.704H106.719ZM118.136 9.592C120.141 7.58667 122.552 6.584 125.368 6.584C128.184 6.584 130.584 7.58667 132.568 9.592C134.573 11.576 135.576 13.976 135.576 16.792C135.576 17.3253 135.523 17.8907 135.416 18.488H118.776C119.16 19.9813 119.96 21.208 121.176 22.168C122.392 23.1067 123.789 23.576 125.368 23.576C127.352 23.576 129.005 22.8613 130.328 21.432H134.456C133.603 23.1173 132.355 24.472 130.712 25.496C129.091 26.4987 127.309 27 125.368 27C122.552 27 120.141 26.008 118.136 24.024C116.152 22.0187 115.16 19.608 115.16 16.792C115.16 13.976 116.152 11.576 118.136 9.592ZM118.776 15.096H131.96C131.597 13.6027 130.797 12.376 129.56 11.416C128.344 10.456 126.947 9.976 125.368 9.976C123.789 9.976 122.381 10.456 121.144 11.416C119.928 12.376 119.139 13.6027 118.776 15.096Z" fill="#8876C5"/>
</svg>
