<svg width="117" height="87" viewBox="0 0 117 87" fill="none" xmlns="http://www.w3.org/2000/svg">
<circle cx="58" cy="43" r="30" fill="#FEFEFE"/>
<path d="M54 55H62" stroke="#171717" stroke-width="2" stroke-linecap="round" stroke-linejoin="round"/>
<path d="M49.0252 40C49.0236 38.814 49.2567 37.6394 49.7111 36.544C50.1655 35.4485 50.8322 34.4538 51.6729 33.6172C52.5135 32.7806 53.5114 32.1186 54.6091 31.6695C55.7067 31.2203 56.8824 30.9929 58.0684 31.0003C63.0171 31.0371 66.9755 35.1504 66.9755 40.113V41C66.9755 45.477 67.9121 48.0749 68.7371 49.4948C68.826 49.6465 68.8732 49.819 68.8742 49.9948C68.8751 50.1706 68.8297 50.3436 68.7424 50.4963C68.6552 50.6489 68.5292 50.7759 68.3773 50.8643C68.2253 50.9528 68.0527 50.9996 67.8769 51H48.1228C47.947 50.9996 47.7743 50.9527 47.6224 50.8643C47.4704 50.7758 47.3444 50.6488 47.2572 50.4961C47.17 50.3435 47.1245 50.1705 47.1255 49.9946C47.1265 49.8188 47.1738 49.6463 47.2627 49.4946C48.0881 48.0746 49.0252 45.4767 49.0252 41L49.0252 40Z" stroke="#171717" stroke-width="2" stroke-linecap="round" stroke-linejoin="round"/>
</svg>
