<svg width="33" height="32" viewBox="0 0 33 32" fill="none" xmlns="http://www.w3.org/2000/svg">
<path d="M16.5 28C23.1274 28 28.5 22.6274 28.5 16C28.5 9.37258 23.1274 4 16.5 4C9.87258 4 4.5 9.37258 4.5 16C4.5 22.6274 9.87258 28 16.5 28Z" stroke="#FEFEFE" stroke-width="2" stroke-miterlimit="10"/>
<path d="M16.5 20C19.2614 20 21.5 17.7614 21.5 15C21.5 12.2386 19.2614 10 16.5 10C13.7386 10 11.5 12.2386 11.5 15C11.5 17.7614 13.7386 20 16.5 20Z" stroke="#FEFEFE" stroke-width="2" stroke-miterlimit="10"/>
<path d="M8.4751 24.9218C9.22836 23.4408 10.3767 22.1971 11.7931 21.3284C13.2095 20.4598 14.8387 20 16.5002 20C18.1617 20 19.7909 20.4598 21.2073 21.3284C22.6237 22.1971 23.772 23.4407 24.5253 24.9217" stroke="#FEFEFE" stroke-width="2" stroke-linecap="round" stroke-linejoin="round"/>
</svg>
