<svg width="70" height="70" viewBox="0 0 95 95" fill="none" xmlns="http://www.w3.org/2000/svg">
<g id="CloudArrowUp">
<path id="Vector" d="M35.6249 77.1816H26.7187C23.7716 77.1788 20.8588 76.5491 18.1737 75.3344C15.4886 74.1198 13.0925 72.3479 11.1445 70.1364C9.19658 67.9248 7.74127 65.3243 6.87522 62.5073C6.00916 59.6904 5.75217 56.7214 6.12129 53.7975C6.49041 50.8737 7.47721 48.0617 9.01619 45.5484C10.5552 43.035 12.6111 40.8778 15.0476 39.2198C17.484 37.5618 20.2453 36.441 23.1481 35.9317C26.0508 35.4225 29.0287 35.5365 31.884 36.2661" stroke="black" stroke-width="3" stroke-linecap="round" stroke-linejoin="round"/>
<path id="Vector_2" d="M29.6875 47.4942C29.688 42.7903 30.8062 38.1539 32.9499 33.967C35.0937 29.78 38.2017 26.1624 42.0179 23.4123C45.834 20.6621 50.249 18.8581 54.8991 18.1489C59.5492 17.4397 64.3013 17.8457 68.7637 19.3333C73.2261 20.8209 77.2712 23.3475 80.5656 26.7051C83.86 30.0627 86.3094 34.155 87.712 38.6449C89.1146 43.1347 89.4302 47.8936 88.6329 52.5294C87.8355 57.1652 85.948 61.5452 83.1259 65.3084" stroke="black" stroke-width="3" stroke-linecap="round" stroke-linejoin="round"/>
<path id="Vector_3" d="M43.8109 60.0898L56.4062 47.4941L69.0015 60.0898" stroke="black" stroke-width="3" stroke-linecap="round" stroke-linejoin="round"/>
<path id="Vector_4" d="M56.4062 77.1816V47.4941" stroke="black" stroke-width="3" stroke-linecap="round" stroke-linejoin="round"/>
</g>
</svg>
