<svg width="19" height="19" viewBox="0 0 19 19" fill="none" xmlns="http://www.w3.org/2000/svg">
<path d="M6.87906 16.0313H3.5625C3.40503 16.0313 3.25401 15.9687 3.14266 15.8574C3.03131 15.746 2.96875 15.595 2.96875 15.4375V12.121C2.96875 12.043 2.98411 11.9658 3.01395 11.8938C3.04379 11.8217 3.08752 11.7563 3.14266 11.7011L12.0489 2.79488C12.1603 2.68353 12.3113 2.62097 12.4688 2.62097C12.6262 2.62097 12.7772 2.68353 12.8886 2.79488L16.2052 6.11144C16.3165 6.22279 16.3791 6.37381 16.3791 6.53128C16.3791 6.68875 16.3165 6.83978 16.2052 6.95113L7.29891 15.8574C7.24377 15.9125 7.17832 15.9562 7.10628 15.9861C7.03424 16.0159 6.95703 16.0313 6.87906 16.0313Z" stroke="black" stroke-linecap="round" stroke-linejoin="round"/>
<path d="M10.0938 4.75L14.25 8.90625" stroke="black" stroke-linecap="round" stroke-linejoin="round"/>
<path d="M7.08714 15.9933L3.00659 11.9127" stroke="black" stroke-linecap="round" stroke-linejoin="round"/>
</svg>
