<svg width="431" height="317" viewBox="0 0 431 317" fill="none" xmlns="http://www.w3.org/2000/svg">
<path d="M296.266 27.456C292.845 18.3036 289.276 8.75436 265.113 15.2133C252.139 18.6815 241.263 30.9349 232.372 49.1318C225.683 63.6036 220.031 82.3175 215.523 104.755C206.31 150.604 202.429 209.912 204.243 267.575L200.222 267.702L200.169 265.963C198.942 224.324 200.665 181.908 205.21 144.302C185.873 124.162 163.833 108.288 147.772 103.016C109.712 94.6056 99.657 116.824 99.9064 136.644C99.952 140.269 101.216 143.283 102.489 146.319C103.806 149.459 105.132 152.623 105.132 156.51C105.132 159.087 99.38 164.411 91.9029 171.333C77.2032 184.939 55.836 204.718 58.4005 221.93C60.7705 237.837 75.8002 249.915 89.6343 256.408C90.9887 257.044 92.4639 258.225 94.2387 259.647C95.5011 260.657 96.915 261.789 98.545 262.933L98.6703 263.02C99.9507 263.904 102.064 265.151 105.01 266.761L105.919 267.255C147.596 289.786 195.967 274.607 211.039 269.004L211.92 268.673L318.806 267.481L318.792 267.397C318.763 267.222 318.715 266.963 318.654 266.628C317.649 261.172 312.93 235.54 322.978 225.211C354.358 192.954 388.767 100.641 341.984 61.9576C331.645 53.409 321.386 48.2122 313.507 44.2211C308.722 41.797 304.815 39.8177 302.301 37.8023C299.205 35.3204 297.749 31.4255 296.266 27.456Z" fill="#FF8B5B"/>
<path fill-rule="evenodd" clip-rule="evenodd" d="M106.975 130.778C104.619 130.368 108.782 135.049 108.782 135.049C108.782 135.049 109.33 131.188 106.975 130.778Z" fill="white"/>
<path fill-rule="evenodd" clip-rule="evenodd" d="M142.207 267.841C142.207 267.841 116.906 257.232 116.906 242.462C116.906 238.129 119.61 238.545 125.019 243.711C125.608 244.272 126.45 245.135 127.548 246.298C128.22 247.01 113.035 228.532 120.686 225.076C128.145 221.707 129.88 239.199 130.269 238.957C130.703 238.689 130.576 233.396 132.302 231.056C133.232 229.796 135.967 229.526 138.036 231.056C148.907 239.094 142.207 267.841 142.207 267.841Z" fill="white"/>
<path fill-rule="evenodd" clip-rule="evenodd" d="M131.332 159.491C131.332 159.491 120.807 158.95 119.372 155.596C117.938 152.243 125.742 154.148 125.742 154.148L131.332 159.491Z" fill="white"/>
<path fill-rule="evenodd" clip-rule="evenodd" d="M113.532 143.593C111.176 142.272 112.516 139.121 113.532 138.99C116.54 138.602 118.914 145.282 119.246 145.951C119.82 147.11 114.728 144.263 113.532 143.593Z" fill="white"/>
<path fill-rule="evenodd" clip-rule="evenodd" d="M137.761 163.843C137.761 163.843 131.999 149.12 137.333 150.28C142.668 151.44 141.133 168.555 141.133 168.555L137.761 163.843Z" fill="white"/>
<path fill-rule="evenodd" clip-rule="evenodd" d="M133.892 153.119C133.968 155.506 134.986 159.17 136.941 164.165C136.968 164.233 137.003 164.298 137.045 164.357L140.417 169.07C140.893 169.735 141.938 169.45 142.011 168.634L142.072 167.929C143.02 156.518 141.651 150.316 137.52 149.417C135.117 148.895 133.805 150.335 133.892 153.119ZM137.235 151.164C139.802 151.824 140.995 156.596 140.474 165.553L140.441 166.073L138.541 163.417L138.208 162.553C136.566 158.229 135.716 155.05 135.654 153.063L135.649 152.785C135.645 151.28 136.057 150.906 137.146 151.143L137.235 151.164Z" fill="#00160A"/>
<path fill-rule="evenodd" clip-rule="evenodd" d="M117.412 224.184C113.7 225.86 113.957 230.091 116.791 235.853L117.008 236.289C117.527 237.31 118.118 238.365 118.772 239.448L118.998 239.816L118.97 239.798C117.91 239.092 116.996 238.678 116.209 238.557C114.121 238.236 113.056 239.778 113.056 242.462C113.056 252.799 121.766 261.536 138.957 268.744C139.514 268.977 140.148 268.653 140.285 268.063C144.832 248.556 143.401 235.93 135.743 230.269C133.394 228.531 129.998 228.64 128.644 230.474L128.527 230.64C127.951 231.488 127.55 232.604 127.252 233.991L127.239 234.052L127.201 233.9C126.989 233.069 126.765 232.286 126.512 231.501C125.673 228.9 124.67 226.857 123.411 225.49C121.754 223.69 119.694 223.153 117.412 224.184ZM125.821 236.588L126.25 238.615L126.3 238.825C126.331 238.953 126.36 239.055 126.389 239.142C126.428 239.259 126.469 239.356 126.534 239.459C126.615 239.586 126.715 239.698 126.874 239.795C127.184 239.982 127.582 239.993 127.91 239.79C128.333 239.528 128.436 239.304 128.552 238.564L128.606 238.194C128.644 237.92 128.784 236.758 128.807 236.574C128.901 235.839 128.995 235.233 129.11 234.656C129.38 233.301 129.744 232.277 130.215 231.638C130.859 230.765 133.031 230.696 134.583 231.844L134.787 231.998C141.245 236.982 142.643 248.273 138.762 265.943L138.642 266.482L138.245 266.31C122.685 259.509 115.01 251.538 115.01 242.462C115.01 240.814 115.297 240.398 115.913 240.492C117.003 240.66 118.907 241.97 121.472 244.419L121.8 244.738C122.191 245.123 122.672 245.613 123.24 246.207L123.998 247.004C124.011 247.017 124.03 247.034 124.069 247.069L124.081 247.099C124.111 247.148 124.207 247.166 124.848 247.285L125.071 247.206C125.335 247.106 125.377 247.04 125.602 246.686L125.653 246.472C125.684 246.33 125.679 246.297 125.663 246.175L125.62 246.001C125.611 245.967 125.604 245.95 125.592 245.925L125.582 245.904C125.556 245.847 125.541 245.818 125.516 245.78L125.25 245.422L124.573 244.524C124.457 244.367 124.34 244.209 124.21 244.032C123.096 242.518 122.017 240.953 121.002 239.338C120.051 237.825 119.221 236.366 118.543 234.988C116.153 230.126 115.962 226.986 118.215 225.969C120.927 224.744 123.008 227.005 124.653 232.103C125.1 233.489 125.454 234.885 125.821 236.588Z" fill="#00160A"/>
<path fill-rule="evenodd" clip-rule="evenodd" d="M120.441 146.491L121.244 147.223C131.195 156.326 138.123 163.589 141.816 168.63C148.263 177.427 153.458 186.552 157.835 196.213C159.391 199.647 160.8 203.047 162.188 206.657L162.566 207.647C162.998 208.787 163.417 209.913 163.872 211.161L165.815 216.531C171.069 230.947 169.33 231.65 164.328 217.628L162.363 212.19C161.952 211.061 161.575 210.04 161.196 209.032L160.911 208.277C159.412 204.328 157.904 200.656 156.223 196.947C151.894 187.391 146.759 178.372 140.389 169.68L140.097 169.286C136.314 164.236 129.289 156.938 119.251 147.805C118.889 147.475 118.862 146.914 119.191 146.551C119.519 146.189 120.079 146.162 120.441 146.491ZM97.1497 126.384L109.542 136.984C110.704 137.983 111.609 138.765 112.041 139.147C112.408 139.471 112.443 140.031 112.12 140.399C111.797 140.766 111.237 140.802 110.871 140.478L107.646 137.692C103.363 134.015 96.6014 128.249 95.9983 127.732C95.6269 127.413 95.5835 126.853 95.9015 126.481C96.2194 126.109 96.7782 126.065 97.1497 126.384Z" fill="#00160A"/>
<path fill-rule="evenodd" clip-rule="evenodd" d="M120.053 152.696C118.426 153.066 117.877 154.343 118.562 155.944C119.705 158.615 123.942 159.995 131.286 160.373C132.102 160.415 132.531 159.417 131.94 158.852L126.35 153.509C126.239 153.402 126.101 153.327 125.951 153.29C123.225 152.625 121.285 152.416 120.053 152.696ZM125.305 154.951L128.949 158.434L128.73 158.413L128.18 158.355C123.488 157.828 120.819 156.738 120.182 155.248L120.116 155.088C119.921 154.598 119.991 154.521 120.442 154.418C121.274 154.229 122.831 154.378 125.048 154.891L125.305 154.951Z" fill="#00160A"/>
<path fill-rule="evenodd" clip-rule="evenodd" d="M114.879 273.024C112.661 274.305 113.565 275.638 118.35 277.766C123.513 280.092 133.122 284.584 149.627 285.849C175.191 287.809 198.466 284.111 227.85 284.111C268.53 284.111 286.386 293.069 300.623 291.003C338.79 285.465 347.437 274.718 336.051 271.945C323.55 268.9 283.817 269.272 270.442 268.397L266.302 268.131L262.746 268.041C224.248 267.094 162.537 268.041 150.486 268.041C125.899 268.041 114.879 273.024 114.879 273.024Z" fill="white"/>
<path fill-rule="evenodd" clip-rule="evenodd" d="M227.85 284.111C268.529 284.111 286.386 293.378 300.623 291.312C338.79 285.775 347.437 274.718 336.051 271.945C323.55 268.9 278.139 267.912 266.957 268.154C266.957 268.154 318.362 277.673 315.612 280.825C307.421 290.212 287.027 278.869 249.986 279.2C242.355 279.268 227.85 284.111 227.85 284.111Z" fill="#E7EAEE"/>
<path fill-rule="evenodd" clip-rule="evenodd" d="M152.926 268.444C151.935 268.449 151.14 268.452 150.485 268.452L149.363 268.455C133.379 268.529 121.721 270.213 114.339 273.551L114.223 273.61C112.499 274.605 111.839 276.071 112.922 277.576C113.623 278.549 115.09 279.467 117.565 280.585L119.67 281.527C122.296 282.693 123.854 283.325 126.192 284.149L126.446 284.238C133.191 286.599 140.676 288.212 149.526 288.89C155.815 289.372 162.223 289.538 169.248 289.44L171.707 289.397C176.326 289.302 180.261 289.139 187.449 288.752L199.875 288.063C211.716 287.421 218.939 287.164 227.467 287.156L227.85 287.156C243.113 287.156 255.581 288.32 269.41 290.589L270.61 290.79C272.694 291.153 284.155 293.176 287.319 293.632L287.429 293.647C292.951 294.426 297.036 294.582 300.812 294.034L301.867 293.878C319.01 291.311 331.399 287.487 337.655 283.257C343.905 279.03 343.339 274.187 336.568 272.444L336.361 272.393C330.738 271.023 320.063 270.262 303.478 269.764L300.076 269.668C299.084 269.641 298.059 269.615 296.982 269.588L282.543 269.253C276.983 269.116 273.573 268.997 270.992 268.839L266.386 268.544L262.779 268.452L259.113 268.369C248.481 268.147 235.782 268.041 221.247 268.031L216.925 268.031C206.796 268.038 196.313 268.088 184.608 268.175L152.926 268.444ZM224.627 270.67C239.135 270.695 251.714 270.822 262.116 271.072L266.269 271.175L270.991 271.479C273.589 271.634 276.992 271.751 282.467 271.887L296.375 272.208C298.015 272.248 299.53 272.288 300.983 272.328L304.389 272.428C320.2 272.92 330.478 273.671 335.74 274.952L336.055 275.032C340.42 276.18 340.563 278.112 336.184 281.073C330.197 285.122 305.616 295.97 288.246 292.272L287.447 292.159C283.775 291.611 271.471 288.846 270.746 288.725L268.963 288.433C255.643 286.283 243.486 285.157 228.831 285.109L226.699 285.109C217.936 285.132 210.388 285.425 197.563 286.137L188.664 286.633C180.056 287.103 175.951 287.272 170.596 287.369L170.165 287.376C143.005 288.433 126.446 282.093 126.446 282.093C124.278 281.317 118.67 279.365 118.67 279.365L118.253 279.174C105.169 274.722 133.735 271.162 149.387 271.089L154.266 271.07L182.609 270.825C195.804 270.723 207.421 270.667 218.658 270.665L224.627 270.67Z" fill="#00160A"/>
<path fill-rule="evenodd" clip-rule="evenodd" d="M284.985 249.432C284.985 249.432 284.916 253.337 286.115 255.144C287.315 256.951 290.66 261.977 293.771 263.3C294.73 263.708 298.389 263.76 300.587 265.047C305.004 267.633 305.987 272.291 300.587 273.278C289.867 275.237 286.115 269.574 286.115 269.574C286.115 269.574 281.699 263.3 277.273 259.14C272.846 254.979 269.32 253.726 269.32 253.726" fill="white"/>
<path d="M321.982 77.7401C320.49 77.6279 319.613 78.7646 319.613 80.1407C319.613 84.9042 327.378 91.4187 332.439 91.4187C333.923 91.4187 335.136 90.3555 334.705 88.7302C334.543 88.1177 334.169 87.5742 333.556 86.9044L333.421 86.7589C332.732 86.0257 332.02 85.3709 330.423 83.9935L327.976 81.892C327.375 81.3713 326.421 80.5409 326.132 80.2937L325.785 79.998C325.116 79.4328 324.599 79.0213 324.137 78.6942C323.321 78.116 322.688 77.7933 321.982 77.7401Z" fill="white"/>
<path fill-rule="evenodd" clip-rule="evenodd" d="M272.37 171.138C272.37 171.138 269.43 162.728 261.873 160.451C259.471 159.727 269.975 175.613 260.704 181.539C257.81 183.389 252.665 184.349 246.334 185.252C218.109 189.278 209.6 178.724 192.177 173.57C185.19 171.504 151.209 162.362 146.072 208.93C142.856 238.079 167.213 247.113 189.042 251.744C232.772 261.022 299.78 257.366 320.678 226.785C345.589 190.332 307.302 158.587 301.908 155.231C300.602 154.419 304.348 164.836 304.764 170.105C305.18 175.374 301.908 177.29 301.908 177.29C301.908 177.29 300.618 171.712 289.217 170.755C277.817 169.798 272.37 171.138 272.37 171.138Z" fill="white"/>
<path fill-rule="evenodd" clip-rule="evenodd" d="M104.627 132.33C105.026 133.274 105.956 134.525 107.467 136.224C108.464 137.346 110.316 136.786 110.527 135.298C111.009 131.899 110 129.513 107.277 129.039C105.145 128.667 103.769 130.303 104.627 132.33ZM108.782 135.049L108.512 134.743C105.969 131.835 105.457 130.514 106.975 130.778C108.545 131.052 109.148 132.475 108.782 135.049Z" fill="#00160A"/>
<path fill-rule="evenodd" clip-rule="evenodd" d="M113.42 138.114C112.429 138.242 111.622 139.407 111.399 140.694C111.144 142.175 111.693 143.573 113.102 144.363L114.074 144.903C115.011 145.417 115.852 145.859 116.671 146.253L117.051 146.433C117.661 146.716 118.154 146.913 118.53 147.017C118.914 147.123 119.205 147.153 119.516 147.039C120.181 146.795 120.298 146.166 120.068 145.63L119.995 145.468C119.904 145.252 119.677 144.71 119.546 144.408L119.518 144.342C119.162 143.527 118.8 142.776 118.4 142.059C116.922 139.404 115.332 137.868 113.42 138.114ZM117.043 143.253C117.283 143.704 117.511 144.174 117.736 144.672L117.809 144.839L117.593 144.737L117.434 144.662C116.385 144.157 115.277 143.559 113.962 142.822C113.253 142.424 113 141.781 113.136 140.996C113.195 140.654 113.328 140.324 113.496 140.082C113.547 140.008 113.598 139.948 113.643 139.905L113.692 139.861L113.645 139.866C114.562 139.747 115.717 140.864 116.862 142.919L117.043 143.253Z" fill="#00160A"/>
<path fill-rule="evenodd" clip-rule="evenodd" d="M128.488 153.342C128.331 152.658 119.554 136.629 125.717 137.133C131.88 137.636 130.412 155.803 130.198 155.803C129.945 155.803 128.6 153.833 128.488 153.342Z" fill="white"/>
<path fill-rule="evenodd" clip-rule="evenodd" d="M122.644 139.52C122.645 141.053 123.155 143.084 124.071 145.55C124.346 146.291 124.654 147.06 124.992 147.859L125.199 148.341C126.013 150.22 127.643 153.601 127.629 153.539C127.716 153.921 128.083 154.558 128.565 155.259L128.743 155.513C129.333 156.354 129.627 156.658 130.125 156.684L130.335 156.689C130.933 156.721 130.933 156.927 131.071 156.055L131.121 155.737C131.142 155.606 131.163 155.436 131.184 155.233L131.197 155.107C131.252 154.541 131.301 153.802 131.335 152.993C131.422 150.905 131.398 148.67 131.227 146.584L131.181 146.055C130.63 140.208 129.029 136.517 125.788 136.252C123.718 136.083 122.644 137.382 122.644 139.52ZM125.645 138.012C127.71 138.181 129.037 141.424 129.471 146.729C129.635 148.736 129.659 150.9 129.575 152.92L129.546 153.52L129.514 153.466C129.429 153.32 129.37 153.209 129.352 153.161L129.346 153.144C129.308 152.979 127.54 149.312 126.816 147.638C126.407 146.694 126.041 145.792 125.722 144.935C124.874 142.65 124.407 140.791 124.406 139.52C124.406 138.362 124.702 137.964 125.552 138.006L125.645 138.012Z" fill="#00160A"/>
<path fill-rule="evenodd" clip-rule="evenodd" d="M152.709 185.906C152.709 185.906 154.639 183.218 155.724 181.883C156.809 180.549 157.973 179.431 157.973 179.431C157.973 179.431 131.763 176.818 122.685 170.046C110.83 161.203 100.195 146.536 89.4836 143.434C76.6778 139.726 71.9384 148.327 68.2448 149.029C56.9928 151.165 36.3849 157.245 45.8081 175.608C48.7173 181.277 58.1415 183.913 64.7808 180.753C72.1917 177.225 81.3181 168.583 90.9167 168.583C102.016 168.583 103.949 177.696 118.039 182.527C126.687 185.492 152.709 185.906 152.709 185.906Z" fill="white"/>
<path fill-rule="evenodd" clip-rule="evenodd" d="M183.917 250.886C183.917 250.886 190.316 257.885 192.967 262.388C195.618 266.891 194.689 269.333 198.37 271.414C203.899 274.541 209.599 273.753 212.135 272.09C214.671 270.427 212.291 266.172 206.976 266.172C205.668 266.172 204.13 263.162 203.385 261.172C202.641 259.182 202.981 254.282 202.981 254.282L183.917 250.886Z" fill="white"/>
<path fill-rule="evenodd" clip-rule="evenodd" d="M303.095 156.994C303.095 156.994 344.785 208.236 286.157 238.315C245.154 259.351 177.788 247.994 177.788 247.994C177.788 247.994 251.124 267.75 299.055 243.931C329.639 228.733 335.689 202.898 321.098 176.595C317.28 169.712 303.095 156.994 303.095 156.994Z" fill="#E7EAEE"/>
<path fill-rule="evenodd" clip-rule="evenodd" d="M300.646 154.438C301.171 153.741 301.99 153.732 302.601 154.112C304.569 155.337 308.13 158.3 311.555 161.776C316.309 166.6 320.553 172.067 323.807 177.959C332.718 194.091 331.922 210.981 320.613 227.53C310.617 242.157 291.061 250.985 263.609 254.94C239.599 258.399 211.802 257.92 188.77 253.033L187.615 252.784C174.434 249.901 164.716 246.237 157.364 240.576C147.721 233.15 143.223 222.76 144.765 208.786C147.098 187.634 155.443 175.878 168.023 171.76C172.699 170.229 177.707 169.853 182.877 170.364C186.421 170.715 189.398 171.375 192.549 172.307L193.109 172.475C196.532 173.516 199.445 174.664 203.938 176.659L207.26 178.15C214.142 181.242 218.125 182.708 223.281 183.75C229.769 185.061 236.913 185.215 245.581 184.028L246.867 183.845C253.941 182.811 257.739 181.873 259.997 180.429C262.642 178.739 263.585 176 263.207 172.207C263.035 170.481 262.608 168.661 261.933 166.539L261.747 165.967C261.456 165.1 260.604 162.665 260.448 162.135C260.254 161.48 260.165 161.023 260.196 160.598C260.276 159.533 261.208 158.875 262.251 159.19C267.764 160.851 271.723 165.676 274.154 173.498C274.37 174.192 273.983 174.931 273.29 175.147C272.597 175.363 271.86 174.976 271.644 174.281C269.793 168.327 267.09 164.454 263.551 162.562L263.318 162.441L264.276 165.238L264.302 165.318C266.731 175.702 264.926 183.845 248.583 186.361C247.684 186.499 229.611 188.058 222.107 186.197C210.74 183.378 194.606 172.858 184.935 172.475C175.263 172.093 173.136 172.858 168.839 174.265C157.309 178.039 147.719 190.265 145.784 210.458C144.762 221.12 150.509 231.923 159.933 238.579C183.917 255.516 239.535 256.322 263.235 252.908C290.03 249.048 310.101 239.932 319.593 226.041C330.297 210.378 329.966 194.548 321.507 179.235C318.378 173.569 314.279 168.29 309.684 163.627C307.591 161.503 305.451 159.583 303.714 158.183L303.421 157.949L303.675 158.953L304.49 162.087L304.787 163.262C304.833 163.447 304.878 163.628 304.921 163.806L305.076 164.451C305.626 166.766 305.96 168.564 306.074 170.002C306.388 173.976 305.24 176.865 302.571 178.428C301.944 178.795 301.139 178.583 300.773 177.955C300.407 177.327 300.618 176.52 301.245 176.153C302.939 175.161 303.694 173.26 303.453 170.21C303.352 168.934 303.037 167.245 302.515 165.045L302.368 164.432C302.304 164.17 302.237 163.902 302.167 163.622L301.021 159.186C300.851 158.514 300.723 157.986 300.62 157.527L300.59 157.391C300.415 156.591 300.323 156.02 300.318 155.589C300.313 155.148 300.376 154.797 300.646 154.438Z" fill="#00160A"/>
<path fill-rule="evenodd" clip-rule="evenodd" d="M272.265 169.687L273.204 169.528C279.405 168.503 284.409 168.133 288.234 168.423C292.268 168.729 296.545 169.822 301.065 171.696C301.661 171.944 301.944 172.628 301.698 173.226C301.451 173.824 300.767 174.107 300.171 173.86C295.87 172.076 291.832 171.044 288.057 170.758C284.263 170.47 279.125 170.88 272.661 171.995C272.025 172.104 271.421 171.677 271.312 171.039C271.202 170.402 271.629 169.796 272.265 169.687Z" fill="#00160A"/>
<path fill-rule="evenodd" clip-rule="evenodd" d="M279.738 164.433C282.537 163.857 285.093 164.155 287.374 165.335C289.557 166.466 291.448 167.887 293.044 169.599C293.378 169.957 293.359 170.518 293.002 170.853C292.645 171.187 292.084 171.168 291.751 170.81C290.295 169.249 288.567 167.95 286.561 166.912C284.653 165.924 282.509 165.674 280.095 166.171C279.616 166.27 279.148 165.961 279.049 165.481C278.951 165.001 279.259 164.532 279.738 164.433Z" fill="#00160A"/>
<path fill-rule="evenodd" clip-rule="evenodd" d="M285.397 159.787C285.648 159.367 286.192 159.23 286.611 159.481C288.856 160.827 290.714 162.332 292.183 163.999C293.665 165.683 294.883 167.834 295.84 170.449C296.009 170.909 295.773 171.419 295.314 171.588C294.855 171.757 294.346 171.521 294.178 171.061C293.292 168.642 292.183 166.681 290.855 165.173C289.513 163.65 287.797 162.259 285.702 161.004C285.283 160.753 285.146 160.208 285.397 159.787Z" fill="#00160A"/>
<path fill-rule="evenodd" clip-rule="evenodd" d="M259.747 180.868C260.117 180.338 260.846 180.21 261.374 180.581C261.903 180.952 250.622 197.051 250.622 200.175C250.622 203.562 252.282 205.829 256.706 209.404L258.579 210.897L259.125 211.336C261.866 213.555 263.463 215.112 264.82 217.09C266.718 219.853 267.61 222.939 267.383 226.598C267.102 231.111 265.743 234.23 263.051 237.829L262.807 238.151C262.504 238.543 261.172 240.249 260.807 240.748C259.504 242.531 258.891 243.873 258.779 245.449C258.288 252.392 261.548 260.777 268.629 270.571C269.007 271.095 268.89 271.827 268.368 272.206C267.845 272.586 267.115 272.469 266.736 271.945C259.363 261.746 255.912 252.869 256.449 245.283C256.591 243.271 257.323 241.604 258.747 239.606L258.921 239.365C259.34 238.791 260.869 236.836 260.998 236.667C263.563 233.295 267.271 228.362 264.302 218.974C262.807 214.247 248.613 210.897 248.147 200.836C248.037 198.466 251.98 191.979 259.747 180.868Z" fill="#00160A"/>
<path d="M264.043 229.546L262.413 229.563C252.76 229.687 246.889 230.175 245.075 230.954L245.009 230.984C242.342 232.209 240.244 233.871 238.641 235.863C237.395 237.41 236.516 239.068 235.94 240.723C235.769 241.217 235.636 241.678 235.537 242.098L235.47 242.396L238.262 245.981C238.29 246.017 238.315 246.054 238.338 246.092L238.365 246.13L238.453 246.259C239.056 247.135 239.741 247.992 240.622 248.991L241.028 249.444C241.751 250.235 244.054 252.723 244.836 253.618C246.51 255.533 247.92 257.376 249.27 259.491C251.328 262.717 253.143 266.441 254.773 270.95L254.89 271.28L255.007 271.618C255.149 272.036 255.288 272.465 255.44 272.949L256.128 275.21C257.143 278.543 257.853 280.074 258.978 281.001L259.167 281.152C260.642 282.303 262.016 282.587 265.837 282.709L266.953 282.74C272.032 282.879 274.681 278.837 271.775 275.9C270.864 274.979 267.858 274.265 262.941 273.966C262.297 273.927 262.902 272.264 262.941 271.618C262.98 270.973 263.534 270.482 264.178 270.521C264.748 270.555 265.295 270.595 265.82 270.64C259.308 261.183 256.129 253.124 256.635 245.981C256.777 243.969 256.562 243.181 257.986 241.184L258.258 240.81C258.777 240.116 260.117 238.403 260.237 238.245C261.334 236.804 262.098 235.623 262.71 234.334L262.831 234.074L262.872 233.981L262.939 233.831C263.262 233.092 263.603 231.817 263.951 230.032L264.043 229.546Z" fill="white"/>
<path fill-rule="evenodd" clip-rule="evenodd" d="M236.602 241.037C237.522 243.728 239.128 245.371 241.364 247.914L241.679 248.267C242.237 248.883 244.769 251.614 245.597 252.562C247.271 254.477 248.681 256.32 250.031 258.435C252.089 261.66 253.904 265.385 255.534 269.894C255.612 270.112 255.69 270.334 255.768 270.562L255.981 271.203C256.029 271.349 256.077 271.5 256.126 271.655L256.405 272.554C256.547 273.021 256.836 273.978 256.889 274.153L257.043 274.652C257.978 277.642 258.672 279.065 259.74 279.945L259.928 280.096C261.34 281.198 262.66 281.506 266.123 281.636L267.715 281.684C272.793 281.823 275.443 277.781 272.536 274.844C271.625 273.923 268.619 273.209 263.703 272.91C263.058 272.871 262.568 272.316 262.607 271.671C262.646 271.025 263.2 270.534 263.844 270.573L264.457 270.613C269.592 270.969 272.783 271.768 274.196 273.196C278.745 277.793 274.694 284.088 267.859 284.029L267.036 284.008C262.156 283.877 260.406 283.526 258.255 281.754C256.721 280.489 255.888 278.789 254.816 275.364L254.123 273.084L253.9 272.367C253.805 272.067 253.715 271.789 253.624 271.52L253.557 271.319C253.483 271.104 253.41 270.895 253.336 270.692C251.765 266.342 250.026 262.774 248.062 259.697C246.879 257.842 245.646 256.208 244.204 254.526L243.839 254.105C242.996 253.139 240.248 250.178 239.866 249.75C237.374 246.958 235.885 244.703 234.823 241.732L234.714 241.422C232.648 235.38 229.995 233.319 226.529 234.607C225.924 234.831 219.152 238.087 225.71 233.717C232.269 229.347 236.602 241.037 236.602 241.037Z" fill="#00160A"/>
<path fill-rule="evenodd" clip-rule="evenodd" d="M277.375 199.439C276.102 199.439 274.275 195.775 274.275 193.984C274.275 192.193 278.847 192.799 278.847 192.799C278.847 192.799 283.648 193.444 282.986 195.245C282.324 197.046 278.083 199.439 277.375 199.439Z" fill="#FFB61D"/>
<ellipse cx="269.849" cy="186.256" rx="2.52151" ry="4.72054" fill="#00160A"/>
<ellipse cx="293.964" cy="187.323" rx="2.7634" ry="4.64662" fill="#00160A"/>
<path fill-rule="evenodd" clip-rule="evenodd" d="M292.16 195.124C294.265 194.218 296.595 194.047 299.123 194.6C301.597 195.141 309.048 199.814 308.787 200.229C308.527 200.643 300.982 196.823 298.746 196.334C296.565 195.856 294.611 196 292.859 196.754C292.41 196.948 291.889 196.74 291.696 196.289C291.503 195.839 291.711 195.318 292.16 195.124Z" fill="#00160A"/>
<path fill-rule="evenodd" clip-rule="evenodd" d="M293.501 198.191C295.71 198.308 296.286 197.803 299.313 199.772C302.34 201.74 304.602 206.377 304.188 206.638C303.774 206.899 301.358 202.763 298.586 200.681C295.814 198.598 292.544 199.519 292.57 199.029C292.595 198.567 292.968 198.207 293.42 198.19L293.501 198.191Z" fill="#00160A"/>
<path fill-rule="evenodd" clip-rule="evenodd" d="M278.157 201.361C277.542 205.185 277.697 207.619 277.927 210.334C278.157 213.05 280.323 216.96 280.54 218.595C280.758 220.229 276.442 213.49 276.181 210.632C275.92 207.775 274.071 200.008 277.302 200.37C277.302 200.37 278.225 200.937 278.157 201.361Z" fill="#00160A"/>
<path fill-rule="evenodd" clip-rule="evenodd" d="M262.077 195.592C264.039 195.592 264.834 195.64 266.745 196.017C267.225 196.112 267.537 196.578 267.443 197.059C267.348 197.539 266.883 197.852 266.403 197.758C265.723 197.624 264.419 197.054 262.257 197.077C259.301 197.108 256.728 198.752 256.6 198.479C256.39 198.037 260.115 195.592 262.077 195.592Z" fill="#00160A"/>
<path fill-rule="evenodd" clip-rule="evenodd" d="M265.286 191.783C265.762 191.895 266.057 192.373 265.945 192.85C265.833 193.327 265.356 193.622 264.88 193.509C260.63 192.505 257.219 192.532 254.814 192.438C252.448 192.345 247.141 192.716 246.985 192.252C246.83 191.787 260.935 190.754 265.286 191.783Z" fill="#00160A"/>
<path fill-rule="evenodd" clip-rule="evenodd" d="M285.005 248.261C285.65 248.273 286.164 248.806 286.153 249.453C286.111 251.84 286.444 253.526 287.088 254.495C289.789 258.564 292.079 261.309 294.227 262.222C294.286 262.247 294.426 262.283 294.643 262.325L294.965 262.383C295.207 262.424 296.226 262.578 296.405 262.606C297.076 262.713 297.63 262.815 298.17 262.937C299.363 263.208 300.355 263.555 301.177 264.036C303.645 265.481 305.275 267.595 305.433 269.673C305.617 272.074 303.875 273.867 300.797 274.43C293.238 275.811 287.948 274.457 285.16 270.249C282.26 266.128 279.363 262.71 276.473 259.994C273.63 257.321 271.106 255.603 268.929 254.83C268.321 254.614 268.003 253.945 268.218 253.335C268.434 252.726 269.102 252.407 269.71 252.623C272.235 253.52 275.013 255.411 278.072 258.286C281.084 261.117 284.082 264.655 287.089 268.926C289.285 272.241 293.642 273.357 300.378 272.126C302.375 271.761 303.185 270.926 303.103 269.851C303.011 268.64 301.861 267.149 299.998 266.058C299.415 265.717 298.634 265.444 297.654 265.221C297.232 265.125 296.791 265.042 296.269 264.956L294.58 264.693L294.254 264.635C293.849 264.559 293.561 264.483 293.315 264.378C291.708 263.695 290.058 262.226 288.33 260.155C287.191 258.79 286.316 257.56 285.142 255.792C284.187 254.353 283.767 252.23 283.816 249.411C283.828 248.765 284.36 248.25 285.005 248.261Z" fill="#00160A"/>
<path fill-rule="evenodd" clip-rule="evenodd" d="M294.443 269.863C294.558 269.476 294.965 269.255 295.351 269.371C296.554 269.731 297.406 270.129 297.925 270.602C298.418 271.051 298.904 271.739 299.403 272.674C299.593 273.03 299.459 273.474 299.104 273.664C298.748 273.855 298.305 273.72 298.115 273.364C297.688 272.564 297.292 272.003 296.943 271.685C296.621 271.392 295.945 271.076 294.933 270.773C294.547 270.658 294.327 270.25 294.443 269.863Z" fill="#00160A"/>
<path fill-rule="evenodd" clip-rule="evenodd" d="M298.252 268.314C298.38 267.93 298.793 267.723 299.176 267.85C300.206 268.194 300.972 268.586 301.481 269.049C301.985 269.508 302.469 270.251 302.96 271.285C303.133 271.651 302.977 272.087 302.613 272.26C302.249 272.434 301.813 272.278 301.64 271.913C301.224 271.036 300.835 270.439 300.498 270.132C300.166 269.83 299.569 269.524 298.715 269.239C298.332 269.112 298.125 268.697 298.252 268.314Z" fill="#00160A"/>
<path fill-rule="evenodd" clip-rule="evenodd" d="M266.989 278.399C267.117 278.015 267.53 277.808 267.913 277.935C268.943 278.279 269.709 278.671 270.218 279.134C270.722 279.593 271.206 280.336 271.697 281.37C271.87 281.736 271.714 282.172 271.35 282.345C270.986 282.519 270.55 282.363 270.377 281.998C269.962 281.121 269.572 280.524 269.236 280.217C268.903 279.915 268.306 279.609 267.452 279.324C267.069 279.197 266.862 278.782 266.989 278.399Z" fill="#00160A"/>
<path fill-rule="evenodd" clip-rule="evenodd" d="M269.114 275.915C269.242 275.531 269.655 275.324 270.038 275.451C271.068 275.795 271.834 276.187 272.342 276.65C272.847 277.109 273.331 277.852 273.821 278.886C273.994 279.251 273.839 279.688 273.475 279.861C273.111 280.035 272.675 279.879 272.502 279.514C272.086 278.636 271.697 278.04 271.36 277.733C271.028 277.43 270.431 277.125 269.577 276.84C269.194 276.713 268.987 276.298 269.114 275.915Z" fill="#00160A"/>
<path fill-rule="evenodd" clip-rule="evenodd" d="M183.128 250.022C183.604 249.585 191.669 258.855 193.398 261.793C193.956 262.74 194.396 263.651 194.787 264.626C194.908 264.927 195.02 265.224 195.142 265.56L195.6 266.857C196.28 268.753 197.411 269.527 198.944 270.394C203.442 272.938 208.754 272.907 211.495 271.11C213.015 270.113 210.962 267.342 206.976 267.342C205.112 267.342 203.51 264.839 202.291 261.583C201.721 260.057 201.578 257.622 201.816 254.201C201.861 253.556 202.419 253.069 203.063 253.114C203.706 253.159 204.192 253.718 204.147 254.364C203.931 257.474 204.057 259.632 204.479 260.761L204.602 261.079C205.423 263.141 206.63 265 206.976 265C209.784 265 212.16 266.085 213.438 267.809C214.789 269.633 214.611 271.865 212.774 273.069C209.281 275.36 203.034 275.396 197.796 272.434C195.771 271.289 194.884 270.103 194.054 267.863L193.608 266.605C193.459 266.184 193.331 265.842 193.194 265.5C192.844 264.629 192.455 263.823 191.96 262.983C190.242 260.064 187.271 256.288 183.055 251.677C182.62 251.2 182.652 250.459 183.128 250.022Z" fill="#00160A"/>
<path fill-rule="evenodd" clip-rule="evenodd" d="M204.764 269.863C204.88 269.476 205.286 269.255 205.673 269.371C206.876 269.731 207.727 270.129 208.247 270.602C208.739 271.051 209.226 271.739 209.725 272.674C209.915 273.03 209.781 273.474 209.425 273.664C209.069 273.855 208.627 273.72 208.437 273.364C208.01 272.564 207.613 272.003 207.265 271.685C206.943 271.392 206.266 271.076 205.255 270.773C204.868 270.658 204.649 270.25 204.764 269.863Z" fill="#00160A"/>
<path fill-rule="evenodd" clip-rule="evenodd" d="M207.512 268.669C207.639 268.285 208.053 268.078 208.435 268.205C209.466 268.549 210.232 268.941 210.74 269.404C211.245 269.863 211.729 270.605 212.219 271.64C212.392 272.005 212.237 272.442 211.873 272.615C211.508 272.789 211.073 272.633 210.9 272.268C210.484 271.39 210.095 270.794 209.758 270.487C209.426 270.184 208.829 269.879 207.974 269.594C207.592 269.466 207.385 269.052 207.512 268.669Z" fill="#00160A"/>
<path fill-rule="evenodd" clip-rule="evenodd" d="M72.82 144.822L72.5731 144.993C71.7913 145.54 70.2856 146.641 69.954 146.875L69.92 146.898C69.0609 147.492 68.4807 147.792 68.0273 147.878C60.0162 149.399 53.0976 151.101 48.3616 154.695C41.7394 159.719 38.1622 168.505 42.6996 177.347C45.9284 183.639 58.1346 185.213 65.2822 181.81C66.5051 181.228 67.8077 180.499 69.3792 179.536L70.0325 179.131C70.2586 178.99 70.4911 178.844 70.7386 178.688L72.4498 177.593L74.3208 176.392L75.0056 175.958C81.8849 171.627 86.2556 169.754 90.9167 169.754C94.7696 169.754 97.4809 170.814 100.887 173.318L101.144 173.509C101.735 173.952 105.574 177.02 106.87 177.965C110.228 180.416 113.544 182.223 117.661 183.634L118.023 183.755C124.048 185.709 135.572 186.804 152.69 187.077C153.073 187.083 153.434 186.901 153.657 186.59L154.324 185.667C155.283 184.349 156.053 183.333 156.63 182.623C157.324 181.769 158.041 180.987 158.781 180.277C159.501 179.585 159.081 178.365 158.088 178.266L157.059 178.161C140.35 176.419 129.102 173.373 123.382 169.106L122.965 168.793C119.915 166.481 117.002 163.873 112.561 159.603L106.822 154.078C104.553 151.912 103.756 151.207 102.166 149.855L101.917 149.643C98.2007 146.485 94.9763 144.319 91.8486 143.028C91.1623 142.744 90.4826 142.504 89.8081 142.309C82.8434 140.292 77.8435 141.413 72.82 144.822ZM89.1593 144.559C89.75 144.73 90.3492 144.941 90.9582 145.193C93.7298 146.337 96.6634 148.284 100.064 151.14L101.395 152.274C102.859 153.536 103.874 154.48 107.249 157.731L111.253 161.59C115.786 165.94 118.756 168.575 121.987 170.985L122.177 171.124C128.047 175.397 138.709 178.401 154.22 180.204L155.489 180.348L155.471 180.367C155.324 180.536 155.179 180.707 155.034 180.881L154.716 181.271L154.472 181.577C154.009 182.164 153.458 182.892 152.819 183.763L152.118 184.725L150.698 184.698C134.596 184.371 123.806 183.266 118.417 181.419C114.686 180.139 111.665 178.522 108.612 176.337L108.245 176.072C107.001 175.165 103.178 172.109 102.542 171.633C98.6423 168.713 95.4303 167.412 90.9168 167.412C85.6844 167.412 81.0065 169.415 73.7743 173.968L72.6628 174.674L70.2794 176.205C69.572 176.658 69.013 177.011 68.4695 177.347L67.8658 177.717C66.4906 178.552 65.3422 179.189 64.2795 179.695C58.2203 182.579 49.4691 180.181 46.8472 175.072C42.8371 167.258 44.2481 161.514 49.9786 157.167C54.3563 153.845 60.7775 151.638 68.4624 150.179C69.2667 150.026 70.042 149.64 71.0533 148.958L71.2458 148.827C71.5456 148.62 73.3639 147.288 74.058 146.81L74.1303 146.761C78.617 143.716 82.9195 142.752 89.1593 144.559Z" fill="#00160A"/>
<path fill-rule="evenodd" clip-rule="evenodd" d="M368.985 176.381L368.875 176.65L368.653 177.204C365.779 184.51 363.242 195.704 361.027 210.813L360.898 211.701L360.891 211.657C360.033 206.591 358.95 202.654 357.631 199.834C355.341 194.935 352.078 193.086 348.221 194.844C335.707 200.549 336.453 223.748 349.706 264.516C349.883 265.058 350.387 265.425 350.956 265.425H365.344C365.73 265.425 366.097 265.255 366.346 264.96C384.313 243.724 392.359 229.447 390.392 221.604L390.328 221.355C388.538 214.607 384.062 213.161 377.679 216.787L377.452 216.917L377.771 216.183C388.843 190.478 390.875 174.65 383.393 168.481C377.9 163.952 372.888 166.948 368.985 176.381ZM381.937 169.498C388.524 174.929 386.183 192.712 373.688 220.275C373.117 221.535 387.842 211.657 387.842 222.245L387.889 222.447C389.307 228.964 381.99 242.121 365.858 261.451L364.733 262.79L350.956 263.774C350.956 263.774 332.382 202.315 349.31 197.242C354.181 195.782 357.775 202.871 359.557 222.047C359.703 223.617 361.979 223.65 362.171 222.085L362.327 220.822C364.888 200.313 367.926 185.818 371.413 177.39L371.613 176.915C374.87 169.273 378.257 166.464 381.937 169.498Z" fill="#00160A"/>
<path d="M381.723 170.515C388.31 175.946 385.641 192.574 373.146 220.137C372.575 221.397 374.082 222.574 375.162 221.712L375.601 221.365C382.7 215.828 386.339 216.251 387.842 222.245L387.889 222.447C389.307 228.964 381.99 242.121 365.858 261.451L364.733 262.79H351.911L351.451 261.354C339.364 223.388 338.887 201.993 349.31 197.242C354.118 195.05 357.775 202.871 359.557 222.047C359.703 223.617 361.979 223.65 362.171 222.085L362.327 220.822C364.888 200.312 367.926 185.818 371.413 177.39L371.613 176.915C374.87 169.273 378.043 167.481 381.723 170.515Z" fill="white"/>
<ellipse cx="347.47" cy="214.037" rx="4.67368" ry="4.68356" fill="#E7EAEE"/>
<ellipse cx="376.681" cy="183.594" rx="4.67361" ry="4.68353" fill="#E7EAEE"/>
<ellipse cx="379.017" cy="228.674" rx="4.67363" ry="4.68355" fill="#E7EAEE"/>
<path fill-rule="evenodd" clip-rule="evenodd" d="M131.303 268.679C123.053 268.809 94.6833 270.916 94.1932 269.861C93.5663 268.511 124.503 266.737 131.247 266.63L133.359 266.601C139.491 266.535 131.303 268.679 131.303 268.679ZM252.654 265.938C253.38 265.919 253.984 266.493 254.003 267.22C254.022 267.948 253.45 268.553 252.724 268.572L240.982 268.862C233.674 269.031 225.203 269.205 212.686 269.452C211.96 269.466 211.36 268.888 211.346 268.161C211.332 267.434 211.908 266.832 212.634 266.818L234.799 266.365C241.528 266.219 246.934 266.09 252.654 265.938ZM282.94 265.324C283.666 265.313 284.263 265.893 284.275 266.621C284.286 267.348 283.707 267.947 282.981 267.959L279.901 267.996L270.477 268.062C268.504 268.082 266.959 268.109 265.138 268.154C264.412 268.171 263.81 267.596 263.792 266.869C263.774 266.142 264.348 265.538 265.074 265.52L267.392 265.47C268.91 265.442 270.452 265.425 272.501 265.41L280.338 265.358C281.249 265.349 282.074 265.338 282.94 265.324ZM368.128 262.79C368.128 262.79 370.488 262.382 387.718 263.675C388.442 263.729 388.985 264.361 388.931 265.087C388.877 265.812 380.356 265.446 368.708 265.425L365.505 265.431C356.952 265.469 349.007 265.7 335.82 266.244L319.176 266.949C312.074 267.24 307.836 267.382 302.684 267.504C301.958 267.521 301.356 266.946 301.339 266.219C301.321 265.491 301.896 264.888 302.622 264.871L306.76 264.762C311.682 264.62 316.74 264.421 325.707 264.037L335.217 263.633C350.085 263.017 358.353 262.79 368.128 262.79Z" fill="#00160A"/>
<path d="M328.3 73.1755L328.601 72.6205C330.958 68.3424 333.011 66.2184 335.406 66.9114C335.6 66.9675 335.79 67.0442 335.976 67.141C337.444 67.9032 337.796 69.3206 337.384 71.2548L337.357 71.374L337.427 71.2746C338.122 70.2849 338.785 69.5205 339.472 68.9533L339.62 68.8348C341.149 67.6425 342.77 67.5316 344.238 68.7738C346.583 70.7572 346.317 74.084 344.403 76.1316L344.297 76.242C344.031 76.5116 343.87 77.0949 343.692 78.4679L343.537 79.6708C343.352 81.0589 343.227 81.6676 342.935 82.6079C342.383 84.3837 341.478 85.8651 340.069 87.0749C338.299 88.5957 335.31 88.3836 331.101 86.65C330.649 86.4638 330.433 85.9454 330.619 85.4923C330.804 85.0391 324.714 79.6568 324.53 79.8929L324.471 79.9614C324.132 80.3147 323.571 80.326 323.219 79.9866L322.363 79.1605C321.848 78.6625 322.105 77.7896 322.807 77.6515C324.094 77.3985 325.092 77.1193 325.794 76.8213C326.383 76.5709 326.704 76.3315 326.781 76.1762C326.781 76.1762 328.06 73.624 328.3 73.1755Z" fill="white"/>
<path fill-rule="evenodd" clip-rule="evenodd" d="M321.982 77.7404C320.49 77.6282 319.613 78.7649 319.613 80.141C319.613 84.9045 327.378 91.419 332.439 91.419C333.922 91.419 335.136 90.3557 334.705 88.7305C334.543 88.118 334.169 87.5745 333.556 86.9047L333.421 86.7592C332.732 86.026 332.02 85.3712 330.422 83.9937L327.976 81.8923C327.375 81.3716 326.421 80.5412 326.132 80.2939L325.785 79.9983C325.116 79.4331 324.599 79.0216 324.137 78.6944C323.321 78.1163 322.688 77.7936 321.982 77.7404ZM321.383 80.1409C321.383 78.2785 324.046 80.8534 327.25 83.6089L329.38 85.4342C331.986 87.6861 335.167 90.0286 333.556 90.2005C328.452 90.7449 321.383 83.9624 321.383 80.1409Z" fill="#00160A"/>
<path fill-rule="evenodd" clip-rule="evenodd" d="M322.39 65.2568C322.756 64.9318 324.584 63.6532 323.64 65.3322C322.696 67.0112 317.24 69.1407 322.696 77.6316C322.904 77.9545 322.651 78.6025 322.196 78.7815C321.741 78.9606 321.227 78.736 321.048 78.28C319.669 74.759 319.031 72.2101 319.153 70.553C319.282 68.7971 320.382 67.0407 322.39 65.2568Z" fill="#00160A"/>
<path fill-rule="evenodd" clip-rule="evenodd" d="M315.573 68.2129C315.669 67.7325 316.615 66.5438 316.615 67.5175C316.615 68.4913 315.225 70.9612 317.182 73.7444C319.138 76.5276 322.504 78.4152 322.216 78.8113C321.929 79.2073 321.375 79.2945 320.98 79.006C318.147 76.9382 316.427 75.3205 315.779 74.0525C315.103 72.7295 315.057 70.7934 315.573 68.2129Z" fill="#00160A"/>
<path fill-rule="evenodd" clip-rule="evenodd" d="M328.3 73.1755L328.601 72.6205C330.958 68.3424 333.011 66.2184 335.406 66.9114C335.6 66.9675 335.79 67.0442 335.976 67.141C337.444 67.9032 337.796 69.3206 337.384 71.2548L337.357 71.374L337.427 71.2746C338.122 70.2849 338.785 69.5205 339.472 68.9533L339.62 68.8348C341.149 67.6425 342.77 67.5316 344.238 68.7738C346.583 70.7572 346.317 74.084 344.403 76.1316L344.297 76.242C344.031 76.5116 343.87 77.0949 343.692 78.4679L343.537 79.6708C343.352 81.0589 343.227 81.6676 342.935 82.6079C342.383 84.3837 341.478 85.8651 340.069 87.0749C338.299 88.5957 335.31 88.3836 331.101 86.65C330.649 86.4638 330.433 85.9454 330.619 85.4923C330.804 85.0391 337.178 88.7505 339.62 85.8653C342.062 82.98 342.326 77.0119 343.03 75.203L343.201 74.8877C344.551 73.5194 344.596 71.3986 343.096 70.1295C342.322 69.4747 341.621 69.5227 340.708 70.2349C339.876 70.8837 339.009 71.9977 338.009 73.6186L337.717 74.1021C337.225 74.9335 336.239 76.6574 336.109 76.8765L335.929 77.175C335.323 78.1679 334.55 78.7898 334.435 78.8164C334.32 78.8431 334.157 78.7508 334.117 77.911C334.104 77.6347 334.174 77.3568 334.32 76.9787L334.379 76.8321C334.556 76.399 335.535 74.3629 335.602 74.2169C335.898 73.5757 336.137 73.0167 336.334 72.4897C337.13 70.3648 335.946 69.1237 335.162 68.7162C335.077 68.6725 334.995 68.6394 334.914 68.6159C333.698 68.264 332.006 70.0728 330.031 73.6968L329.603 74.4987C329.287 75.1036 328.977 75.7257 328.368 76.9616C327.925 77.8603 326.744 78.5045 324.774 79.0241L324.666 79.0515L324.676 79.0773C324.762 79.3499 324.714 79.6568 324.53 79.8929L324.471 79.9614C324.132 80.3147 323.571 80.326 323.219 79.9866L322.363 79.1605C321.848 78.6625 322.105 77.7896 322.807 77.6515C324.094 77.3985 325.092 77.1193 325.794 76.8213C326.383 76.5709 326.704 76.3315 326.781 76.1762L327.608 74.5081C327.862 74.0034 328.06 73.624 328.3 73.1755Z" fill="#00160A"/>
<ellipse cx="339.915" cy="75.8888" rx="2.01132" ry="1.65249" fill="#FFB61D"/>
<ellipse cx="334.168" cy="71.2818" rx="2.01135" ry="1.65248" fill="#FFB61D"/>
<path fill-rule="evenodd" clip-rule="evenodd" d="M321.804 82.8717C321.524 82.6222 321.173 82.1722 320.864 81.6851L320.466 81.8625L319.995 82.0646C319.9 82.108 319.839 82.1419 319.82 82.1694C319.766 82.2707 319.641 82.3092 319.539 82.2555C319.439 82.2018 319.399 82.0763 319.454 81.9753C319.491 81.8792 319.755 81.578 320.246 81.2833C320.335 81.2299 320.434 81.1802 320.539 81.1318C320.358 80.7923 320.216 80.4643 320.149 80.2013C320.048 79.8134 320.129 79.5386 320.261 79.442C320.392 79.3465 320.718 79.3287 321.215 79.7423C321.307 79.8122 321.321 79.9426 321.252 80.0333C321.182 80.1236 321.053 80.1403 320.961 80.0705C320.867 80.0006 320.771 79.961 320.694 79.9323L320.732 80.0808C320.747 80.1338 320.765 80.1892 320.79 80.2432C320.879 80.4385 320.992 80.6615 321.12 80.8905C321.509 80.7433 321.951 80.6099 322.429 80.5456C322.662 80.5142 322.899 80.5081 323.146 80.5101C323.287 80.5008 323.411 80.6086 323.42 80.7511C323.429 80.8932 323.321 81.0163 323.18 81.0257C322.605 81.0813 322.073 81.2268 321.604 81.3905L321.45 81.4459C321.704 81.8435 321.976 82.2047 322.209 82.4086C322.335 82.5206 322.348 82.7154 322.238 82.8431C322.124 82.9712 321.931 82.984 321.804 82.8717Z" fill="#FFB61D"/>
<path fill-rule="evenodd" clip-rule="evenodd" d="M186.667 241.309C185.214 248.171 178.2 250.117 178.276 255.642C178.315 258.499 179.102 260.869 179.749 262.692C181.063 266.398 184.488 270.216 186.074 273.75C187.43 276.771 194.231 274.728 194.775 279.422C195.07 281.979 190.259 283.452 188.949 283.552C187.07 283.694 184.687 283.048 181.802 281.611C178.292 279.903 175.476 278.556 173.436 276.094C173.039 275.614 172.789 274.259 172.349 272.127C171.868 269.795 170.224 263.866 165.928 254.293C165.315 252.926 162.966 247.33 160.355 241.607C158.2 236.884 167.107 227.423 171.056 227.754C180.757 228.567 187.693 236.462 186.667 241.309Z" fill="white"/>
<path fill-rule="evenodd" clip-rule="evenodd" d="M179.865 281.713C177.45 280.272 175.463 278.612 173.906 276.731C173.508 276.251 173.216 274.483 172.776 272.351C172.545 271.234 164.161 251.077 161.395 243.489C160.879 242.074 162.132 243.065 162.426 243.489C164.031 245.807 173.906 261.091 178.624 275.25" fill="#E7EAEE"/>
<path fill-rule="evenodd" clip-rule="evenodd" d="M181.747 281.11L182.106 281.288C184.82 282.639 187.01 283.233 188.645 283.109C190.402 282.976 193.269 281.389 193.395 280.037C193.599 277.868 193.013 277.253 190.117 276.157C189.277 275.839 187.006 275.908 183.506 276.439C182.868 276.536 182.272 276.096 182.176 275.457C182.079 274.817 182.518 274.221 183.156 274.124L183.731 274.039C187.312 273.525 189.657 273.479 190.942 273.966L191.323 274.113C194.799 275.491 196.035 276.915 195.722 280.257C195.456 283.088 191.578 285.235 188.822 285.444C186.766 285.6 184.289 284.951 181.369 283.534L181.075 283.389C177.423 281.611 174.515 279.426 172.364 276.829C172.081 276.486 171.899 276.031 171.713 275.331L171.67 275.165C171.601 274.894 171.532 274.593 171.452 274.215L170.989 271.938L170.917 271.605C170.155 268.186 167.948 261.874 164.604 254.376L164.094 253.247C163.78 252.561 159.295 245.277 158.96 243.57C157.708 237.189 162.827 234.027 162.827 234.027C162.827 234.027 160.172 239.64 160.92 242.399C161.502 244.545 166.41 251.926 168.156 257.585C169.963 263.441 171.854 269.69 174.617 274.799C176.702 278.656 178.195 280.403 181.747 281.11Z" fill="#00160A"/>
<path fill-rule="evenodd" clip-rule="evenodd" d="M187.414 279.798C187.529 279.411 187.936 279.191 188.322 279.306C189.525 279.667 190.377 280.065 190.896 280.538C191.389 280.986 191.875 281.675 192.374 282.609C192.564 282.965 192.43 283.409 192.074 283.6C191.719 283.79 191.276 283.656 191.086 283.299C190.659 282.5 190.263 281.938 189.914 281.621C189.592 281.328 188.916 281.012 187.904 280.709C187.518 280.593 187.298 280.185 187.414 279.798Z" fill="#00160A"/>
<path fill-rule="evenodd" clip-rule="evenodd" d="M189.453 277.54C189.58 277.156 189.994 276.949 190.376 277.077C191.407 277.42 192.172 277.812 192.681 278.275C193.186 278.734 193.67 279.477 194.16 280.512C194.333 280.877 194.178 281.313 193.814 281.486C193.449 281.66 193.014 281.504 192.841 281.139C192.425 280.262 192.036 279.665 191.699 279.358C191.366 279.056 190.769 278.75 189.915 278.465C189.532 278.338 189.325 277.923 189.453 277.54Z" fill="#00160A"/>
<path fill-rule="evenodd" clip-rule="evenodd" d="M182.142 230.376C184.711 231.411 189.764 237.152 188.982 240.376C188.174 243.71 186.988 245.042 185.102 247.252L184.905 247.48C184.329 248.136 181.954 250.555 181.859 250.656L181.634 250.905C179.517 253.3 178.652 255.947 180.374 260.826C181.636 264.4 183.711 268.463 186.575 272.337C186.953 272.848 187.893 274.349 187.383 274.728C186.873 275.106 185.666 273.883 185.288 273.372C182.295 269.323 180.124 265.398 178.782 261.594C176.753 255.848 177.243 253.48 180.042 250.386L180.22 250.193C180.52 249.88 182.579 247.782 183.124 247.173L183.178 247.111C184.937 245.106 186.097 242.982 186.841 239.912C187.355 237.791 185.193 234.024 180.625 230.966C177.592 228.937 179.573 229.34 182.142 230.376Z" fill="#00160A"/>
</svg>
